<svg width="14px" height="14px" viewBox="0 0 16 16" fill="#2bbdee" xmlns="http://www.w3.org/2000/svg" color="#2bbdee"><g clip-path="url(#29clip0_12910_612)"><path d="M10.5197 0.582122C11.4012 0.54852 12.461 2.37366 13.0754 3.70322C14.7745 4.7148 15.7971 6.36749 15.9689 8.31552C16.3976 13.1768 12.3493 15.1083 8.60469 15.4386C3.64792 15.8756 -0.137787 13.9353 0.00410515 9.54794C0.0566577 7.9233 0.457577 6.54734 1.33418 5.45517C1.63225 4.03295 2.3409 1.68868 3.28536 1.53134C4.2687 1.36772 5.13118 2.45064 5.48164 3.07822C5.97204 2.95463 6.50068 2.85011 7.06953 2.76767C7.61648 2.68841 8.14301 2.64837 8.64766 2.64072C8.85581 1.95891 9.50824 0.620769 10.5197 0.582122Z" fill="#2FC0F1"></path><path d="M14.7826 8.89244C15.0861 11.8845 12.2493 13.6896 8.56431 14.0634C4.8793 14.4371 1.59846 12.7219 1.3333 10.1075C1.06814 7.49309 2.95516 5.10544 7.27654 4.66715C11.5979 4.22886 14.4792 5.90033 14.7826 8.89244Z" fill="#30353A"></path><path d="M9.70756 10.1461C9.93288 9.86666 10.3422 9.82316 10.6216 10.0484 10.901 10.2737 10.9455 10.683 10.7203 10.9625 10.5398 11.1862 10.2561 11.5251 9.89408 11.8296 9.53535 12.1314 9.05826 12.4349 8.48295 12.5347 7.9543 12.6264 7.42413 12.5709 6.99662 12.4771 6.67728 12.407 6.38743 12.3095 6.16557 12.2125L5.9683 12.1168 5.85893 12.0425C5.62768 11.8481 5.55711 11.5119 5.70658 11.2359 5.85631 10.9596 6.17698 10.8354 6.46635 10.9234L6.58744 10.9742 6.69291 11.024C6.82426 11.0808 7.0297 11.1536 7.27592 11.2076 7.60189 11.279 7.95152 11.307 8.26029 11.2535 8.5222 11.2081 8.79148 11.058 9.05717 10.8345 9.31975 10.6136 9.53908 10.355 9.70756 10.1461ZM4.52734 7.39221C5.41901 7.39221 6.14258 8.1148 6.14258 9.00647 6.14258 9.89813 5.41901 10.6207 4.52734 10.6207 3.63579 10.6206 2.91309 9.89805 2.91309 9.00647 2.91309 8.75608 2.97151 8.5197 3.07324 8.30823L2.31836 8.01331 2.55371 7.41272 3.4834 7.776C3.76491 7.53696 4.12908 7.39227 4.52734 7.39221ZM4.52832 8.01428C3.98049 8.01428 3.53613 8.45863 3.53613 9.00647 3.53613 9.5543 3.98049 9.99866 4.52832 9.99866 5.07604 9.99853 5.52051 9.55422 5.52051 9.00647 5.52051 8.45872 5.07604 8.01441 4.52832 8.01428ZM12.8018 7.83264 11.9883 8.1842C12.0906 8.3927 12.1512 8.62552 12.1543 8.87268H11.5322C11.5212 8.33451 11.0818 7.90113 10.541 7.901 10.0001 7.901 9.56087 8.33443 9.5498 8.87268H8.92676C8.93787 7.99067 9.65542 7.27906 10.54 7.27893 10.9361 7.27893 11.2982 7.42216 11.5791 7.65881L12.5449 7.24084 12.8018 7.83264Z" fill="#9ABDEE"></path></g><defs><clipPath id="29clip0_12910_612"><rect width="16" height="16" fill="white"></rect></clipPath></defs></svg>