<svg width="14px" height="14px" viewBox="0 0 16 16" xmlns="http://www.w3.org/2000/svg" fill="#FF3BB8" color="#FF3BB8"><path d="M13.0475 3.03823L8.00003 0.124084L1.17914 4.06213V11.9382L8.00003 15.8763L14.8209 11.9382V6.42806L13.8458 6.99102V11.3753L8.00003 14.7503L2.15422 11.3753V4.62509L8.00003 1.25001L12.0724 3.60119L13.0475 3.03823Z"></path><path d="M13.8125 3.74573L14.6859 4.24997V5.25844L13.8125 5.76267L12.9392 5.25844V4.24997L13.8125 3.74573Z"></path><path fill-rule="evenodd" clip-rule="evenodd" d="M8.96219 5.17217H5.00667V4.03457H8.96219C10.398 4.03457 11.562 5.19856 11.562 6.6344C11.562 8.07024 10.398 9.23423 8.96219 9.23423H6.08479V11.7813H4.94719V8.09663H8.96219C9.76975 8.09663 10.4244 7.44197 10.4244 6.6344C10.4244 5.82683 9.76975 5.17217 8.96219 5.17217Z"></path><path d="M9.22528 9.92967H9.30185C9.64487 9.92967 9.98415 9.85833 10.2981 9.72018L11.1249 11.7815H9.94004L9.22528 9.92967Z"></path></svg>