<svg width="14px" height="14px" viewBox="0 0 16 16" xmlns="http://www.w3.org/2000/svg" fill="#dfff18" color="#dfff18"><path d="M14.9318 1.67757C14.9583 1.51289 14.9787 1.34488 14.9505 1.18049C14.7872 0.231137 13.7094 -0.313127 12.8332 0.193279L1.5148 8.16111C0.60812 8.68513 1.08921 10.078 2.12528 9.92859L7.64734 8.85618C8.41239 8.74583 9.15634 9.11017 9.54561 9.75636C9.65214 9.93319 9.70716 10.1347 9.75459 10.3356L10.9142 15.2495C10.9379 15.3499 10.9657 15.4508 11.0175 15.5402C11.4557 16.2965 12.6345 16.0726 12.7701 15.213C12.7874 15.1032 12.7917 14.9911 12.8094 14.8813L14.9318 1.67757Z"></path></svg>