<svg width="218" height="40" viewBox="0 0 218 40" fill="none" xmlns="http://www.w3.org/2000/svg">
<g clip-path="url(#clip0_9518_39137)">
<rect width="218" height="40" fill="url(#paint0_linear_9518_39137)"/>
<g style="mix-blend-mode:overlay" opacity="0.16">
<path d="M0.0043149 23.1052C0.213709 22.8617 0.516176 22.622 0.85586 22.4335C1.53988 22.0603 2.14014 22.0642 2.17737 22.4335C2.21925 22.8067 1.68878 23.4038 1.00011 23.777C0.604585 23.9892 0.246282 24.0874 0.0043149 24.0599V23.1052Z" fill="white" fill-opacity="0.36"/>
<path d="M0.883438 22.6746C1.33015 22.431 1.70705 22.435 1.73963 22.6746C1.76755 22.9143 1.4232 23.3032 0.976493 23.5428C0.529785 23.7864 0.148224 23.7903 0.120305 23.5507C0.097039 23.311 0.43673 22.9143 0.883438 22.6746Z" fill="white"/>
<path d="M0.00531322 24.3355C0.442715 24.2255 0.759134 24.3159 0.791706 24.5987C0.824279 24.913 0.498553 25.3805 0.00531322 25.7733V24.3355Z" fill="white" fill-opacity="0.36"/>
<path d="M0.00499451 24.6702C0.177163 24.6702 0.288847 24.7369 0.302807 24.8705C0.321419 25.0237 0.200429 25.2359 0.00499451 25.4401V24.6702Z" fill="white"/>
<path d="M5.46562 21.0479C6.2334 20.6708 6.90813 20.7061 6.95931 21.1147C7.0105 21.5232 6.41954 22.1557 5.6471 22.5329C4.87002 22.9139 4.20926 22.9021 4.15807 22.4857C4.10689 22.0772 4.69319 21.425 5.46562 21.0479Z" fill="white" fill-opacity="0.36"/>
<path d="M5.49796 21.3109C6.0005 21.0674 6.42861 21.087 6.46583 21.3502C6.49841 21.6174 6.11684 22.0259 5.61895 22.2734C5.1164 22.517 4.6883 22.5091 4.65573 22.2381C4.62316 21.9748 5.00472 21.5584 5.50262 21.3109H5.49796Z" fill="white"/>
<path d="M3.76277 23.3764C4.61896 22.9403 5.36346 22.9678 5.42395 23.4235C5.47979 23.8871 4.81904 24.6099 3.96285 25.0499C3.09736 25.4899 2.36215 25.486 2.30631 25.0263C2.25978 24.5628 2.91122 23.8164 3.76741 23.3764H3.76277Z" fill="white" fill-opacity="0.36"/>
<path d="M3.80006 23.6708C4.35379 23.388 4.83307 23.3998 4.87029 23.6983C4.90286 23.9969 4.48408 24.4644 3.92569 24.7512C3.36265 25.038 2.88803 25.034 2.85546 24.7315C2.81823 24.433 3.24633 23.9576 3.80006 23.6669V23.6708Z" fill="white"/>
<path d="M1.86064 26.0401C2.8099 25.5255 3.64283 25.5452 3.69867 26.0637C3.75916 26.5823 3.02395 27.4112 2.07004 27.9298C1.11148 28.4483 0.292518 28.4562 0.23668 27.9298C0.180841 27.4073 0.906737 26.5548 1.86064 26.0362V26.0401Z" fill="white" fill-opacity="0.36"/>
<path d="M1.89706 26.3732C2.51594 26.0433 3.0464 26.0472 3.08828 26.385C3.12551 26.7229 2.65089 27.2611 2.03201 27.595C1.41313 27.9289 0.88266 27.9329 0.845434 27.595C0.808209 27.2572 1.28284 26.7072 1.89706 26.3732Z" fill="white"/>
<path d="M0.00319302 28.9501C0.943141 28.4944 1.72023 28.5416 1.77606 29.0758C1.83656 29.6533 1.04086 30.5844 0.00319302 31.1933V28.9501Z" fill="white" fill-opacity="0.36"/>
<path d="M0.00307226 29.3476C0.589376 29.0765 1.0547 29.1158 1.09658 29.4497C1.12915 29.8151 0.649868 30.4004 0.00307226 30.7894V29.3437V29.3476Z" fill="white"/>
<path d="M10.6702 19.7614C11.5357 19.3921 12.2942 19.4667 12.3593 19.9146C12.4245 20.3664 11.7637 21.0264 10.8936 21.3996C10.0188 21.7767 9.26961 21.7256 9.20446 21.2699C9.14862 20.8142 9.80009 20.1346 10.6702 19.7614Z" fill="white" fill-opacity="0.36"/>
<path d="M10.7079 20.048C11.2709 19.8123 11.7595 19.8555 11.8014 20.1502C11.8432 20.4409 11.4151 20.8691 10.8521 21.1126C10.2891 21.3562 9.80048 21.3209 9.75861 21.0262C9.71673 20.7316 10.1402 20.2916 10.7032 20.048H10.7079Z" fill="white"/>
<path d="M8.76543 22.2286C9.72864 21.7886 10.5709 21.8593 10.6453 22.3661C10.7151 22.8728 9.97991 23.635 9.00739 24.0789C8.03953 24.5267 7.20195 24.4835 7.13681 23.9689C7.07166 23.4582 7.79756 22.6686 8.76543 22.2286Z" fill="white" fill-opacity="0.36"/>
<path d="M8.80687 22.554C9.4304 22.2672 9.97482 22.3104 10.0214 22.6365C10.0632 22.9665 9.58861 23.4615 8.96042 23.7483C8.32759 24.0311 7.79247 24.0076 7.75059 23.6736C7.70871 23.3476 8.17869 22.8369 8.80687 22.5501V22.554Z" fill="white"/>
<path d="M6.64896 25.0682C7.7192 24.5535 8.65915 24.6085 8.73361 25.1821C8.80806 25.7557 7.98443 26.6317 6.90954 27.1581C5.83 27.6845 4.90401 27.661 4.83422 27.0835C4.76907 26.5021 5.57873 25.5946 6.64896 25.0682Z" fill="white" fill-opacity="0.36"/>
<path d="M6.69509 25.4331C7.38842 25.0953 7.99334 25.1306 8.04452 25.4999C8.09105 25.8731 7.56058 26.4427 6.8626 26.7845C6.16928 27.1263 5.56437 27.1027 5.51783 26.7295C5.47595 26.3563 6.00177 25.771 6.69509 25.4331Z" fill="white"/>
<path d="M4.28589 28.3319C5.47245 27.7191 6.51012 27.7623 6.59387 28.4105C6.67298 29.0587 5.7563 30.0723 4.56042 30.7008C3.3599 31.3254 2.33619 31.3176 2.26174 30.6655C2.19659 30.0133 3.09001 28.9566 4.28589 28.3359V28.3319Z" fill="white" fill-opacity="0.36"/>
<path d="M4.33749 28.7469C5.10527 28.3462 5.77534 28.3737 5.82652 28.794C5.87771 29.2144 5.28209 29.8783 4.51431 30.279C3.73723 30.6797 3.07181 30.6758 3.02528 30.2515C2.9741 29.8272 3.56506 29.1515 4.33749 28.7469Z" fill="white"/>
<path d="M0.0033164 33.4341C0.408145 32.9509 0.985142 32.4677 1.6459 32.1023C2.96741 31.3755 4.1121 31.3991 4.20516 32.1298C4.28427 32.8644 3.26521 34.043 1.93439 34.7815C1.17592 35.2019 0.482601 35.3905 0.00797415 35.3394V33.4341H0.0033164Z" fill="white" fill-opacity="0.36"/>
<path d="M1.6966 32.5716C2.55279 32.1002 3.2973 32.108 3.35314 32.5873C3.39967 33.0627 2.74357 33.8287 1.88272 34.308C1.02188 34.7873 0.28667 34.7951 0.235485 34.3159C0.184299 33.8366 0.840409 33.0509 1.6966 32.5716Z" fill="white"/>
<path d="M0.00482404 35.8882C0.856361 35.6721 1.47058 35.8529 1.53108 36.4225C1.59622 37.051 0.958731 37.9821 0.00482404 38.7796V35.8882Z" fill="white" fill-opacity="0.36"/>
<path d="M0.0046078 36.5601C0.334985 36.5601 0.549024 36.6897 0.576943 36.9608C0.609516 37.2672 0.386171 37.6915 0.0046078 38.104V36.5601Z" fill="white"/>
<path d="M16.5353 18.6472C17.5125 18.2975 18.378 18.4272 18.4571 18.9222C18.5362 19.4172 17.7963 20.0929 16.8145 20.4504C15.828 20.8078 14.9765 20.7096 14.8974 20.2068C14.8229 19.7079 15.5581 19.0007 16.5353 18.6432V18.6472Z" fill="white" fill-opacity="0.36"/>
<path d="M16.5819 18.9644C17.2148 18.7365 17.7778 18.819 17.8243 19.1372C17.8755 19.4594 17.4009 19.9033 16.7634 20.1312C16.1259 20.359 15.5769 20.2922 15.5257 19.9701C15.4745 19.6479 15.9491 19.1962 16.5819 18.9644Z" fill="white"/>
<path d="M14.4182 21.2349C15.5024 20.8145 16.4563 20.9363 16.5493 21.4942C16.6331 22.0559 15.8048 22.8416 14.7206 23.2777C13.6225 23.7138 12.6825 23.6234 12.5941 23.0538C12.5197 22.4881 13.3293 21.6631 14.4182 21.2349Z" fill="white" fill-opacity="0.36"/>
<path d="M14.4747 21.5913C15.182 21.3202 15.7962 21.391 15.852 21.7563C15.9032 22.1177 15.3774 22.6324 14.6748 22.9113C13.9628 23.1902 13.3533 23.1313 13.2928 22.7659C13.2416 22.4006 13.7674 21.8702 14.4747 21.5913Z" fill="white"/>
<path d="M12.0588 24.2324C13.2593 23.7178 14.3249 23.8356 14.4179 24.4681C14.5063 25.1045 13.5897 26.0199 12.3798 26.5463C11.1607 27.0688 10.1137 26.9941 10.0253 26.3538C9.9462 25.7134 10.8489 24.7549 12.0588 24.2324Z" fill="white" fill-opacity="0.36"/>
<path d="M12.1155 24.6369C12.8973 24.303 13.5813 24.3737 13.6418 24.7823C13.7023 25.1948 13.1067 25.7919 12.3249 26.1337C11.5339 26.4715 10.8592 26.4205 10.7987 26.004C10.7428 25.5915 11.3291 24.9708 12.1109 24.6369H12.1155Z" fill="white"/>
<path d="M9.42256 27.7084C10.7627 27.0877 11.9446 27.1898 12.0423 27.9087C12.1447 28.6276 11.1117 29.7001 9.76691 30.3326C8.41282 30.9651 7.25417 30.914 7.15645 30.1833C7.06804 29.4566 8.07778 28.333 9.42256 27.7084Z" fill="white" fill-opacity="0.36"/>
<path d="M9.48162 28.1675C10.3518 27.7629 11.1103 27.8257 11.1754 28.2893C11.2312 28.7529 10.5751 29.46 9.70498 29.8646C8.83018 30.2771 8.0717 30.2339 8.01586 29.7664C7.95537 29.295 8.61147 28.5761 9.48162 28.1675Z" fill="white"/>
<path d="M6.47578 31.7517C7.96481 30.9975 9.27235 31.0839 9.37938 31.8971C9.48175 32.7142 8.33706 33.9713 6.83873 34.7295C5.32644 35.4917 4.04216 35.472 3.94909 34.6431C3.86068 33.8181 4.9821 32.5021 6.47578 31.7478V31.7517Z" fill="white" fill-opacity="0.36"/>
<path d="M6.54065 32.2699C7.50852 31.7867 8.35076 31.8299 8.41591 32.3603C8.48105 32.8906 7.74583 33.7117 6.77331 34.2027C5.80544 34.6977 4.96321 34.6741 4.89807 34.1399C4.83292 33.6056 5.57279 32.7649 6.53601 32.2738L6.54065 32.2699Z" fill="white"/>
<path d="M3.18045 36.4501C4.83699 35.5466 6.28879 35.6016 6.40046 36.5287C6.50749 37.4598 5.23251 38.9329 3.562 39.8444C1.8822 40.7676 0.458327 40.7793 0.36061 39.8365C0.267546 38.8976 1.5239 37.3615 3.1851 36.4501H3.18045Z" fill="white" fill-opacity="0.36"/>
<path d="M3.24597 37.0462C4.32086 36.4609 5.25151 36.4844 5.32596 37.0894C5.3911 37.6944 4.57214 38.653 3.49259 39.2422C2.4084 39.8354 1.48241 39.8394 1.41727 39.2265C1.35212 38.6215 2.17108 37.6355 3.24597 37.0462Z" fill="white"/>
<path d="M23.1753 17.8213C24.2827 17.507 25.2599 17.7113 25.3623 18.2574C25.46 18.7995 24.6317 19.4831 23.5243 19.8052C22.4075 20.1273 21.435 19.9623 21.3419 19.4123C21.2489 18.8623 22.0678 18.1395 23.1753 17.8213Z" fill="white" fill-opacity="0.36"/>
<path d="M23.236 18.1674C23.9526 17.9671 24.5901 18.0928 24.6506 18.4463C24.7111 18.796 24.176 19.2438 23.464 19.452C22.7428 19.6603 22.1146 19.5463 22.0541 19.1928C21.9983 18.8392 22.5194 18.3717 23.236 18.1674Z" fill="white"/>
<path d="M20.8162 20.4968C22.0447 20.1039 23.1335 20.3082 23.2406 20.9211C23.3476 21.5378 22.4263 22.3432 21.1932 22.7439C19.9554 23.1446 18.8805 22.9914 18.7735 22.3668C18.6758 21.7421 19.5878 20.8896 20.8162 20.4968Z" fill="white" fill-opacity="0.36"/>
<path d="M20.8816 20.8893C21.6726 20.6339 22.3846 20.7635 22.4497 21.1603C22.5149 21.561 21.9193 22.0835 21.1236 22.3467C20.3232 22.6021 19.6252 22.4999 19.5601 22.0992C19.4949 21.6985 20.0812 21.1485 20.8816 20.8932V20.8893Z" fill="white"/>
<path d="M18.1833 23.6225C19.542 23.1353 20.7519 23.3278 20.8682 24.0271C20.9799 24.7264 19.9469 25.6732 18.5835 26.176C17.2061 26.6789 16.0149 26.5414 15.9079 25.8303C15.8055 25.1232 16.8153 24.1175 18.1833 23.6225Z" fill="white" fill-opacity="0.36"/>
<path d="M18.2493 24.0717C19.1334 23.7535 19.9105 23.8753 19.9896 24.3231C20.0594 24.7788 19.3986 25.3995 18.5098 25.7217C17.6211 26.0438 16.8486 25.9495 16.7788 25.4938C16.709 25.0342 17.3698 24.3978 18.2493 24.0717Z" fill="white"/>
<path d="M15.2372 27.2842C16.7495 26.6793 18.0896 26.86 18.2152 27.6535C18.3409 28.451 17.1869 29.5667 15.6653 30.1913C14.1344 30.816 12.8129 30.702 12.7012 29.8928C12.5942 29.0874 13.7249 27.901 15.2372 27.2842Z" fill="white" fill-opacity="0.36"/>
<path d="M15.317 27.7964C16.2988 27.4035 17.1596 27.5096 17.2434 28.0282C17.3179 28.5389 16.5734 29.2696 15.5962 29.6742C14.6097 30.0749 13.7489 29.9964 13.6744 29.4778C13.6046 28.9592 14.3352 28.1971 15.317 27.7964Z" fill="white"/>
<path d="M11.9526 31.5872C13.6371 30.8369 15.1168 30.994 15.2517 31.8976C15.3774 32.8051 14.0977 34.129 12.404 34.899C10.7009 35.6768 9.24446 35.5943 9.12347 34.6711C9.00714 33.7518 10.2682 32.3494 11.9526 31.5872Z" fill="white" fill-opacity="0.36"/>
<path d="M12.0317 32.164C13.1252 31.6768 14.0837 31.7672 14.1675 32.3565C14.2513 32.9457 13.423 33.81 12.3295 34.3089C11.2267 34.8118 10.2821 34.745 10.1983 34.1518C10.1285 33.5586 10.9382 32.659 12.0317 32.164Z" fill="white"/>
<path d="M8.27648 36.6386C10.1424 35.7076 11.7897 35.8372 11.9292 36.8704C12.0595 37.9075 10.631 39.475 8.7511 40.4296C6.85259 41.3843 5.23329 41.345 5.1123 40.2882C4.99597 39.2354 6.40124 37.5776 8.27648 36.6386Z" fill="white" fill-opacity="0.36"/>
<path d="M8.35984 37.3013C9.56967 36.7002 10.6306 36.7709 10.7237 37.4427C10.8121 38.1145 9.88144 39.1437 8.66695 39.7566C7.44316 40.3694 6.39619 40.3341 6.31243 39.6544C6.23798 38.9748 7.15001 37.9102 8.3645 37.3052L8.35984 37.3013Z" fill="white"/>
<path d="M30.7064 17.4079C31.9535 17.1525 33.0703 17.4511 33.1959 18.0482C33.3169 18.6414 32.3909 19.3132 31.1392 19.5803C29.8782 19.8435 28.7754 19.596 28.6544 18.995C28.5427 18.3939 29.4594 17.6671 30.7111 17.4079H30.7064Z" fill="white" fill-opacity="0.36"/>
<path d="M30.7807 17.7873C31.5903 17.6223 32.3162 17.8069 32.3907 18.1958C32.4651 18.5808 31.8695 19.0247 31.0599 19.1937C30.2456 19.3626 29.529 19.1937 29.4499 18.8087C29.3754 18.4198 29.971 17.9562 30.7807 17.7873Z" fill="white"/>
<path d="M28.0684 20.133C29.4551 19.7913 30.6975 20.0977 30.8324 20.7695C30.9674 21.4491 29.9297 22.2505 28.5384 22.6001C27.1378 22.9458 25.914 22.7101 25.7837 22.0226C25.6627 21.3391 26.6818 20.4709 28.0684 20.133Z" fill="white" fill-opacity="0.36"/>
<path d="M28.1511 20.5604C29.0492 20.3404 29.8495 20.529 29.938 20.969C30.0171 21.4051 29.3516 21.9315 28.4489 22.1593C27.5462 22.3872 26.7505 22.2183 26.6667 21.7783C26.5876 21.3383 27.2484 20.7844 28.1465 20.5604H28.1511Z" fill="white"/>
<path d="M25.1321 23.3467C26.6723 22.9028 28.045 23.2014 28.1985 23.9674C28.3381 24.7335 27.1841 25.6921 25.6346 26.1556C24.0804 26.6113 22.7263 26.3913 22.5868 25.6056C22.4611 24.8239 23.5918 23.7907 25.1367 23.3467H25.1321Z" fill="white" fill-opacity="0.36"/>
<path d="M25.2147 23.8426C26.2151 23.5558 27.1039 23.7404 27.197 24.2354C27.2854 24.7343 26.5409 25.3629 25.5404 25.6615C24.5353 25.9561 23.6512 25.8029 23.5628 25.2961C23.4791 24.7933 24.2143 24.1293 25.2101 23.8426H25.2147Z" fill="white"/>
<path d="M21.8459 27.1638C23.5583 26.5903 25.0845 26.8771 25.2381 27.7492C25.3916 28.6292 24.1027 29.7802 22.381 30.3734C20.65 30.9706 19.147 30.7702 19.0028 29.8745C18.8632 28.9827 20.1288 27.7413 21.8459 27.1638Z" fill="white" fill-opacity="0.36"/>
<path d="M21.9373 27.7253C23.0447 27.3482 24.0312 27.525 24.1289 28.0946C24.2266 28.6643 23.3937 29.4146 22.2863 29.7996C21.1648 30.1807 20.1923 30.0432 20.0946 29.4657C20.0062 28.8882 20.8252 28.0946 21.9373 27.7214V27.7253Z" fill="white"/>
<path d="M18.1754 31.689C20.0693 30.9504 21.7677 31.2136 21.9352 32.2154C22.0981 33.2211 20.6556 34.6039 18.7431 35.3661C16.812 36.1282 15.1555 35.9711 15.0066 34.9418C14.8623 33.9243 16.2723 32.4315 18.1801 31.689H18.1754Z" fill="white" fill-opacity="0.36"/>
<path d="M18.2777 32.3361C19.5108 31.8569 20.5996 32.014 20.7067 32.6622C20.809 33.3143 19.8784 34.2218 18.6453 34.7129C17.3982 35.2 16.3233 35.09 16.2256 34.4261C16.1326 33.7661 17.0446 32.8154 18.2823 32.3361H18.2777Z" fill="white"/>
<path d="M14.065 37.0819C16.1729 36.143 18.0528 36.3748 18.2296 37.5219C18.4018 38.6769 16.7871 40.3347 14.6559 41.3051C12.5108 42.2754 10.6728 42.1654 10.5146 40.9829C10.3657 39.8083 11.9431 38.0287 14.065 37.078V37.0819Z" fill="white" fill-opacity="0.36"/>
<path d="M14.1732 37.8166C15.5413 37.2077 16.7511 37.3413 16.8674 38.0877C16.9744 38.8341 15.9368 39.9301 14.5594 40.5508C13.1728 41.1715 11.9816 41.089 11.8745 40.3308C11.7722 39.5726 12.8005 38.4334 14.1732 37.8166Z" fill="white"/>
<path d="M39.2539 17.5676C40.6684 17.3947 41.9481 17.8111 42.1016 18.4554C42.2552 19.1036 41.2175 19.7479 39.7936 19.9325C38.3698 20.1211 37.1041 19.7636 36.9552 19.0997C36.8109 18.4436 37.8393 17.7404 39.2539 17.5636V17.5676Z" fill="white" fill-opacity="0.36"/>
<path d="M39.3471 17.9797C40.2638 17.8658 41.0874 18.129 41.1852 18.5494C41.2782 18.9697 40.6128 19.3979 39.6915 19.5158C38.7702 19.6336 37.9465 19.3979 37.8535 18.9697C37.7604 18.5454 38.4258 18.0937 39.3425 17.9797H39.3471Z" fill="white"/>
<path d="M36.3125 20.2838C37.8853 20.0285 39.3045 20.4528 39.472 21.1874C39.6349 21.926 38.4762 22.7077 36.8942 22.9827C35.3074 23.2499 33.9068 22.9002 33.7486 22.1499C33.595 21.3995 34.7397 20.5431 36.3078 20.2838H36.3125Z" fill="white" fill-opacity="0.36"/>
<path d="M36.4143 20.7554C37.438 20.5904 38.3454 20.8536 38.4571 21.3329C38.5641 21.8121 37.815 22.3268 36.7912 22.5036C35.7675 22.6764 34.8555 22.4407 34.7578 21.9575C34.6554 21.4743 35.3953 20.9243 36.4143 20.7593V20.7554Z" fill="white"/>
<path d="M33.0322 23.5371C34.7772 23.1717 36.3546 23.5999 36.5315 24.4367C36.7036 25.2774 35.4147 26.232 33.6558 26.6209C31.8922 27.0059 30.338 26.672 30.1705 25.8077C30.0077 24.9513 31.2826 23.9063 33.0322 23.5371Z" fill="white" fill-opacity="0.36"/>
<path d="M33.1394 24.0773C34.2701 23.8377 35.2892 24.1048 35.4055 24.647C35.5172 25.193 34.6842 25.8216 33.5442 26.0691C32.4042 26.3166 31.4037 26.0927 31.2874 25.5348C31.1804 24.9809 32.0086 24.317 33.1394 24.0734V24.0773Z" fill="white"/>
<path d="M29.3604 27.4534C31.3008 26.9427 33.0457 27.363 33.2412 28.3216C33.4366 29.288 31.9848 30.4508 30.0304 30.989C28.0668 31.5272 26.3544 31.2208 26.1729 30.2269C26.0008 29.2448 27.42 27.9719 29.365 27.4534H29.3604Z" fill="white" fill-opacity="0.36"/>
<path d="M29.4814 28.0738C30.7378 27.7398 31.8638 27.9991 31.9941 28.6238C32.1105 29.2523 31.1752 30.0144 29.9141 30.3602C28.6485 30.7059 27.5317 30.4937 27.4154 29.8573C27.299 29.2248 28.2204 28.4116 29.4814 28.0738Z" fill="white"/>
<path d="M25.2621 32.1689C27.4119 31.4696 29.3476 31.8704 29.557 32.9743C29.7571 34.0821 28.1378 35.5081 25.9694 36.2349C23.7824 36.9617 21.8839 36.6985 21.6977 35.5592C21.5163 34.4278 23.0983 32.8682 25.2574 32.1689H25.2621Z" fill="white" fill-opacity="0.36"/>
<path d="M25.3826 32.8786C26.7786 32.4229 28.0303 32.6665 28.1606 33.3854C28.2862 34.1043 27.2486 35.0432 25.8433 35.5068C24.4334 35.9743 23.2003 35.7896 23.0746 35.055C22.9583 34.3243 23.982 33.3304 25.3826 32.8786Z" fill="white"/>
<path d="M20.6626 37.8683C23.0496 36.9412 25.1948 37.3026 25.4228 38.5754C25.6368 39.8561 23.8221 41.6004 21.4117 42.5629C18.9828 43.5293 16.8795 43.325 16.6841 42.0089C16.4979 40.7007 18.2662 38.7994 20.6672 37.8683H20.6626Z" fill="white" fill-opacity="0.36"/>
<path d="M20.7979 38.6858C22.3474 38.0847 23.7295 38.3008 23.8691 39.1258C24.0086 39.9586 22.8407 41.1057 21.2772 41.7264C19.7091 42.3471 18.3457 42.1939 18.2154 41.3493C18.0944 40.5047 19.2391 39.2947 20.7979 38.6858Z" fill="white"/>
<path d="M48.9743 18.4462C50.5797 18.3794 52.0408 18.9294 52.2316 19.6287C52.427 20.3319 51.259 20.929 49.6444 21.0154C48.0297 21.0901 46.5779 20.6108 46.3965 19.8919C46.215 19.1808 47.3736 18.509 48.9743 18.4462Z" fill="white" fill-opacity="0.36"/>
<path d="M49.0952 18.8942C50.1328 18.8549 51.0774 19.2006 51.2031 19.6563C51.3241 20.112 50.5702 20.5048 49.5279 20.5559C48.4856 20.6031 47.5457 20.2848 47.4247 19.8252C47.313 19.3656 48.0575 18.9374 49.0952 18.8942Z" fill="white"/>
<path d="M45.6942 21.1046C47.481 20.9593 49.0957 21.525 49.3097 22.3264C49.5145 23.1278 48.2209 23.8703 46.4201 24.0392C44.624 24.2042 43.0186 23.721 42.8185 22.8999C42.6371 22.0828 43.9167 21.2539 45.6942 21.1046Z" fill="white" fill-opacity="0.36"/>
<path d="M45.8244 21.6147C46.983 21.5204 48.03 21.8779 48.1649 22.3965C48.2952 22.9151 47.453 23.41 46.2943 23.5161C45.1357 23.6222 44.0934 23.2961 43.9631 22.7697C43.8374 22.2433 44.6704 21.7129 45.8244 21.6147Z" fill="white"/>
<path d="M42.0317 24.3357C44.0186 24.0764 45.8147 24.6578 46.0427 25.5692C46.2661 26.4885 44.8143 27.4117 42.8181 27.6985C40.8172 27.9892 39.0397 27.5138 38.8256 26.571C38.6255 25.6321 40.0541 24.5989 42.0317 24.3317V24.3357Z" fill="white" fill-opacity="0.36"/>
<path d="M42.1707 24.9248C43.4504 24.748 44.6183 25.1173 44.7626 25.7105C44.9022 26.3076 43.9669 26.9165 42.6733 27.1012C41.3797 27.2858 40.2257 26.9637 40.0907 26.3587C39.9605 25.7537 40.8864 25.0976 42.1707 24.9248Z" fill="white"/>
<path d="M37.9369 28.2827C40.1379 27.8702 42.1388 28.4516 42.3807 29.5005C42.618 30.5534 40.9987 31.7084 38.7698 32.1562C36.5409 32.6041 34.5726 32.1562 34.3539 31.0719C34.1399 29.9916 35.7359 28.6991 37.9369 28.2827Z" fill="white" fill-opacity="0.36"/>
<path d="M38.0813 28.9671C39.5052 28.6921 40.7988 29.0535 40.9523 29.7371C41.1059 30.4246 40.0589 31.1867 38.6211 31.4695C37.1879 31.7563 35.9036 31.4538 35.7594 30.7506C35.6198 30.0513 36.6528 29.2342 38.0813 28.9632V28.9671Z" fill="white"/>
<path d="M33.3475 33.1322C35.7905 32.5115 38.01 33.0811 38.266 34.2911C38.5219 35.5128 36.7071 36.9585 34.2316 37.6146C31.7515 38.2785 29.5784 37.8778 29.3411 36.6207C29.1131 35.3675 30.8953 33.7607 33.3429 33.1322H33.3475Z" fill="white" fill-opacity="0.36"/>
<path d="M33.5057 33.9136C35.0925 33.5089 36.521 33.8586 36.6885 34.6482C36.8514 35.4378 35.6788 36.3964 34.0827 36.8167C32.482 37.2371 31.0721 36.9621 30.9139 36.1528C30.7603 35.3475 31.919 34.3221 33.5057 33.9136Z" fill="white"/>
<path d="M28.2109 39.086C30.9237 38.206 33.3806 38.7324 33.6598 40.1388C33.9344 41.557 31.8916 43.368 29.1462 44.2991C26.3776 45.2341 23.9765 44.908 23.7345 43.4387C23.5019 41.9852 25.4841 39.9777 28.2109 39.086Z" fill="white" fill-opacity="0.36"/>
<path d="M28.3791 39.9926C30.138 39.419 31.7248 39.7372 31.9016 40.6486C32.0691 41.5718 30.7569 42.7661 28.984 43.3632C27.2019 43.9643 25.643 43.7286 25.4755 42.7857C25.322 41.8508 26.6109 40.5701 28.3791 39.9926Z" fill="white"/>
<path d="M60.0381 20.19C61.8575 20.2489 63.5326 20.9403 63.7699 21.6906C64.0073 22.4449 62.7044 22.991 60.8757 22.9517C59.0469 22.9124 57.3764 22.2838 57.1531 21.5139C56.9344 20.7439 58.2233 20.131 60.0427 20.19H60.0381Z" fill="white" fill-opacity="0.36"/>
<path d="M60.1816 20.6734C61.3635 20.7087 62.4384 21.1487 62.5966 21.6398C62.7455 22.1269 61.908 22.4883 60.7214 22.4608C59.5395 22.4333 58.4599 22.0209 58.311 21.5219C58.1668 21.0269 59.0044 20.638 60.1816 20.6734Z" fill="white"/>
<path d="M56.39 22.7378C58.4141 22.7221 60.2754 23.4528 60.5314 24.3092C60.7919 25.1735 59.3355 25.8649 57.2927 25.9042C55.2546 25.9474 53.4073 25.3071 53.1607 24.4153C52.9187 23.5274 54.3658 22.7496 56.3853 22.7339L56.39 22.7378Z" fill="white" fill-opacity="0.36"/>
<path d="M56.5479 23.2917C57.8601 23.2799 59.0607 23.7435 59.2282 24.3014C59.391 24.8592 58.4557 25.3188 57.1342 25.3424C55.8174 25.362 54.6168 24.9417 54.4586 24.3681C54.3051 23.7985 55.2404 23.3074 56.5479 23.2917Z" fill="white"/>
<path d="M52.3062 25.8904C54.5583 25.7647 56.6244 26.5229 56.9082 27.5089C57.1828 28.4989 55.5588 29.3789 53.2834 29.5439C51.0126 29.701 48.9698 29.0646 48.7046 28.0353C48.4487 27.0139 50.0587 26.0161 52.3062 25.8904Z" fill="white" fill-opacity="0.36"/>
<path d="M52.4779 26.5307C53.939 26.4442 55.2745 26.9196 55.4513 27.5639C55.6281 28.2081 54.5765 28.7896 53.1107 28.8917C51.6403 28.9899 50.3188 28.5617 50.1466 27.9017C49.9745 27.2417 51.0261 26.6132 52.4779 26.5267V26.5307Z" fill="white"/>
<path d="M47.733 29.8095C50.2364 29.5227 52.5304 30.2966 52.8329 31.4359C53.1307 32.583 51.3066 33.7027 48.78 34.0366C46.2486 34.3626 43.9872 33.7498 43.708 32.5595C43.4381 31.377 45.2342 30.1002 47.733 29.8095Z" fill="white" fill-opacity="0.36"/>
<path d="M47.9148 30.5493C49.5388 30.3529 51.0185 30.84 51.2093 31.5864C51.4048 32.3289 50.2228 33.0753 48.5942 33.2835C46.9563 33.4918 45.4905 33.0753 45.3044 32.3132C45.1229 31.5511 46.2909 30.7418 47.9148 30.5532V30.5493Z" fill="white"/>
<path d="M42.6083 34.709C45.3863 34.2022 47.9316 34.9683 48.2573 36.2922C48.5784 37.624 46.5356 39.0579 43.7204 39.6275C40.8959 40.1853 38.3972 39.6275 38.104 38.2407C37.8202 36.8618 39.821 35.2237 42.6083 34.709Z" fill="white" fill-opacity="0.36"/>
<path d="M42.7992 35.5701C44.6093 35.2401 46.2426 35.7076 46.4566 36.5719C46.6614 37.4401 45.3398 38.3908 43.5251 38.7522C41.7057 39.1097 40.0817 38.7208 39.8863 37.829C39.6955 36.9451 40.9984 35.9041 42.7992 35.5701Z" fill="white"/>
<path d="M72.6303 22.8218C74.6963 23.0025 76.6088 23.8196 76.9066 24.6171C77.1998 25.4185 75.7526 25.9214 73.6726 25.7682C71.5973 25.611 69.6895 24.845 69.4056 24.0161C69.1311 23.1911 70.5736 22.6411 72.6303 22.8218Z" fill="white" fill-opacity="0.36"/>
<path d="M72.8117 23.3374C74.1471 23.4552 75.3849 23.9738 75.5803 24.4963C75.7664 25.0188 74.8358 25.3488 73.4864 25.2466C72.1463 25.1445 70.9085 24.6416 70.7224 24.1074C70.5409 23.577 71.4762 23.2274 72.807 23.3374H72.8117Z" fill="white"/>
<path d="M68.5875 25.2593C70.8862 25.3772 73.0174 26.2611 73.3384 27.1764C73.6549 28.0957 72.0355 28.736 69.7182 28.6535C67.4009 28.5632 65.2791 27.7618 64.9766 26.8071C64.6788 25.8564 66.2935 25.1415 68.5829 25.2593H68.5875Z" fill="white" fill-opacity="0.36"/>
<path d="M68.7834 25.8518C70.2724 25.9265 71.6498 26.4882 71.8592 27.0854C72.0639 27.6825 71.017 28.1068 69.5186 28.0479C68.025 27.9889 66.6523 27.4586 66.4475 26.8418C66.2521 26.229 67.299 25.7772 68.7834 25.8518Z" fill="white"/>
<path d="M64.0445 28.2937C66.6037 28.3212 68.9769 29.2483 69.3259 30.309C69.6748 31.3736 67.8508 32.1986 65.2683 32.2222C62.6857 32.2458 60.3359 31.4247 60.0055 30.3169C59.6844 29.2169 61.4899 28.278 64.0445 28.2976V28.2937Z" fill="white" fill-opacity="0.36"/>
<path d="M64.2585 28.9798C65.9151 28.9915 67.446 29.5847 67.674 30.2762C67.8973 30.9676 66.7201 31.5136 65.0496 31.5254C63.3837 31.5372 61.8575 30.9912 61.6434 30.2762C61.4387 29.569 62.602 28.9758 64.2585 28.9798Z" fill="white"/>
<path d="M58.95 32.1318C61.8024 32.0022 64.4315 32.9686 64.8131 34.1982C65.1853 35.4317 63.1472 36.5121 60.2622 36.7046C57.3819 36.8971 54.7761 36.0878 54.4271 34.7953C54.0874 33.5107 56.1116 32.2732 58.95 32.1357V32.1318Z" fill="white" fill-opacity="0.36"/>
<path d="M59.1785 32.9349C61.0259 32.8406 62.7243 33.4534 62.9709 34.2549C63.2082 35.0602 61.8913 35.7752 60.0301 35.893C58.1734 36.0109 56.4797 35.4648 56.2517 34.6359C56.0283 33.8109 57.3359 33.0292 59.1785 32.9349Z" fill="white"/>
<path d="M53.2271 37.0335C56.3959 36.6682 59.3181 37.6542 59.7276 39.0881C60.1324 40.5338 57.8384 41.9481 54.6277 42.392C51.4123 42.8281 48.532 42.0659 48.1597 40.5495C47.8014 39.041 50.0582 37.3989 53.2271 37.0335Z" fill="white" fill-opacity="0.36"/>
<path d="M53.4743 37.9647C55.531 37.7212 57.4155 38.334 57.6808 39.2729C57.9413 40.2158 56.457 41.1547 54.3816 41.4336C52.311 41.7086 50.4357 41.19 50.1938 40.2158C49.9564 39.2454 51.4175 38.2161 53.4743 37.9686V37.9647Z" fill="white"/>
<path d="M86.9477 26.1894C89.2743 26.4408 91.4613 27.3208 91.8382 28.1537C92.2058 28.9865 90.6005 29.4933 88.2552 29.2811C85.91 29.0612 83.723 28.189 83.3694 27.313C83.025 26.4448 84.6304 25.9341 86.9523 26.1855L86.9477 26.1894Z" fill="white" fill-opacity="0.36"/>
<path d="M87.1763 26.7356C88.6839 26.8966 90.0985 27.4623 90.3358 28.0084C90.5731 28.5545 89.5355 28.8805 88.0185 28.7391C86.5016 28.5938 85.087 28.0241 84.859 27.4663C84.631 26.9084 85.6733 26.5824 87.1763 26.7356Z" fill="white"/>
<path d="M82.4862 28.5716C85.0873 28.7956 87.5256 29.7738 87.9351 30.7323C88.3352 31.6987 86.5345 32.3273 83.91 32.1544C81.281 31.9776 78.852 31.0348 78.4658 30.0212C78.0935 29.0155 79.8943 28.3516 82.4862 28.5677V28.5716Z" fill="white" fill-opacity="0.36"/>
<path d="M82.7367 29.2039C84.4211 29.3453 85.9986 29.9739 86.2591 30.5985C86.5151 31.231 85.3518 31.6395 83.6533 31.5256C81.9596 31.4078 80.3822 30.791 80.1309 30.1389C79.8843 29.4907 81.0569 29.0664 82.7367 29.2039Z" fill="white"/>
<path d="M77.4647 31.5433C80.3683 31.6965 83.0858 32.7611 83.5325 33.8808C83.9699 35.0083 81.9411 35.8097 79.0049 35.7193C76.0734 35.625 73.3606 34.639 72.9511 33.4526C72.5509 32.2779 74.5704 31.398 77.4647 31.5433Z" fill="white" fill-opacity="0.36"/>
<path d="M77.7338 32.2735C79.6184 32.3638 81.3727 33.0474 81.6565 33.7781C81.9357 34.5088 80.6188 35.0392 78.725 34.9724C76.8358 34.9056 75.0769 34.2535 74.807 33.4953C74.5418 32.741 75.854 32.1792 77.7292 32.2696L77.7338 32.2735Z" fill="white"/>
<path d="M71.8112 35.3093C75.0545 35.329 78.0744 36.4682 78.5537 37.7764C79.0283 39.0885 76.7483 40.1375 73.4585 40.2003C70.1826 40.2592 67.1766 39.2575 66.7346 37.8668C66.3065 36.4839 68.5772 35.2975 71.8066 35.3133L71.8112 35.3093Z" fill="white" fill-opacity="0.36"/>
<path d="M72.1 36.1658C74.2032 36.1658 76.1576 36.8965 76.4647 37.749C76.7671 38.6054 75.2874 39.3007 73.1656 39.3282C71.0483 39.3557 69.1033 38.6879 68.8148 37.8C68.531 36.9122 70.0014 36.1619 72.1 36.1658Z" fill="white"/>
<path d="M65.4368 40.1653C69.0524 39.9571 72.4167 41.1474 72.9332 42.6835C73.445 44.2313 70.8718 45.6298 67.2004 45.9402C63.5383 46.2427 60.2066 45.2802 59.7367 43.6302C59.2853 41.996 61.8213 40.3774 65.4322 40.1692L65.4368 40.1653Z" fill="white" fill-opacity="0.36"/>
<path d="M103.162 29.725C105.772 29.9214 108.267 30.715 108.732 31.5596C109.193 32.4042 107.434 33.0288 104.795 32.8914C102.157 32.7499 99.6581 31.8699 99.2161 30.9664C98.7833 30.0668 100.552 29.5286 103.162 29.7211V29.725Z" fill="white" fill-opacity="0.36"/>
<path d="M103.451 30.2829C105.145 30.4047 106.759 30.9311 107.057 31.485C107.35 32.039 106.21 32.4318 104.507 32.3375C102.799 32.2393 101.185 31.6775 100.901 31.1001C100.617 30.5226 101.757 30.1651 103.451 30.2829Z" fill="white"/>
<path d="M98.2986 32.2863C101.225 32.4945 104.013 33.4334 104.52 34.4195C105.022 35.4094 103.036 36.1362 100.081 35.9948C97.1167 35.8534 94.3248 34.8555 93.8455 33.7987C93.3755 32.7459 95.3717 32.0859 98.2986 32.2902V32.2863Z" fill="white" fill-opacity="0.36"/>
<path d="M98.6099 32.9353C100.508 33.0649 102.314 33.6817 102.64 34.326C102.965 34.9742 101.676 35.4338 99.7639 35.3356C97.8468 35.2335 96.046 34.5931 95.7296 33.9174C95.4225 33.2417 96.7114 32.8096 98.6099 32.9353Z" fill="white"/>
<path d="M92.7888 35.363C96.0694 35.5555 99.1824 36.628 99.7454 37.7869C100.299 38.9497 98.047 39.8258 94.7246 39.7197C91.4022 39.6137 88.2846 38.5176 87.768 37.2723C87.2655 36.0309 89.513 35.1784 92.7935 35.363H92.7888Z" fill="white" fill-opacity="0.36"/>
<path d="M93.129 36.1256C95.2648 36.2395 97.275 36.9427 97.6333 37.697C97.9823 38.4591 96.5305 39.0209 94.3807 38.9423C92.2356 38.8638 90.2207 38.1527 89.881 37.3552C89.546 36.5617 91.0025 36.0117 93.129 36.1217V36.1256Z" fill="white"/>
<path d="M86.553 39.177C90.2337 39.2792 93.7096 40.4931 94.3192 41.8563C94.9148 43.2273 92.3742 44.3233 88.6376 44.3273C84.9104 44.3273 81.4391 43.1684 80.8854 41.6913C80.3456 40.2259 82.8816 39.0788 86.553 39.177Z" fill="white" fill-opacity="0.36"/>
<path d="M121.425 32.1994C124.329 32.0816 127.149 32.5255 127.735 33.3426C128.312 34.1637 126.414 35.1144 123.477 35.3187C120.537 35.519 117.693 34.8394 117.135 33.9398C116.595 33.0401 118.522 32.3212 121.425 32.1994Z" fill="white" fill-opacity="0.36"/>
<path d="M121.784 32.7491C123.668 32.6588 125.493 32.977 125.869 33.5152C126.242 34.0573 125.004 34.6466 123.105 34.7605C121.207 34.8823 119.369 34.4659 119.011 33.8923C118.657 33.3227 119.899 32.8316 121.784 32.7452V32.7491Z" fill="white"/>
<path d="M116.2 35.3981C119.476 35.3549 122.64 35.9834 123.282 36.9538C123.915 37.9281 121.756 38.9612 118.438 39.1066C115.121 39.248 111.929 38.3798 111.328 37.3113C110.737 36.2466 112.929 35.4452 116.2 35.3981Z" fill="white" fill-opacity="0.36"/>
<path d="M116.592 36.0467C118.713 36.0113 120.765 36.4474 121.175 37.0838C121.58 37.7281 120.179 38.3645 118.039 38.447C115.894 38.5256 113.832 37.9913 113.441 37.3117C113.055 36.632 114.465 36.0938 116.592 36.0467Z" fill="white"/>
<path d="M110.239 39.0076C113.929 39.0154 117.484 39.8522 118.191 41.0111C118.884 42.1739 116.428 43.3171 112.677 43.4271C108.931 43.5332 105.358 42.4922 104.706 41.2154C104.069 39.9465 106.549 39.0037 110.243 39.0076H110.239Z" fill="white" fill-opacity="0.36"/>
<path d="M110.662 39.7822C113.058 39.7783 115.362 40.344 115.813 41.1062C116.26 41.8683 114.659 42.5833 112.244 42.6422C109.824 42.6972 107.516 42.0411 107.088 41.2279C106.669 40.4187 108.27 39.7862 110.666 39.7822H110.662Z" fill="white"/>
<path d="M141.805 31.432C145.021 30.5717 148.162 30.2496 148.897 30.9724C149.623 31.707 147.631 33.3099 144.369 34.292C141.149 35.2545 137.915 35.1406 137.222 34.2999C136.543 33.4592 138.623 32.2885 141.801 31.432H141.805Z" fill="white" fill-opacity="0.36"/>
<path d="M142.252 31.9348C144.337 31.3651 146.379 31.208 146.849 31.6912C147.31 32.1783 146.016 33.1644 143.913 33.7851C141.833 34.3979 139.749 34.3704 139.297 33.8401C138.851 33.3019 140.191 32.5005 142.252 31.9348Z" fill="white"/>
<path d="M136.325 36.0561C139.968 35.3333 143.514 35.2233 144.324 36.1151C145.124 37.0147 142.839 38.6961 139.145 39.5604C135.473 40.4129 131.835 40.0396 131.071 39.0065C130.327 37.9733 132.709 36.7829 136.325 36.0561Z" fill="white" fill-opacity="0.36"/>
<path d="M136.812 36.6742C139.176 36.191 141.484 36.1753 141.996 36.7725C142.507 37.3696 141.018 38.3988 138.631 38.941C136.263 39.4792 133.913 39.2867 133.42 38.6346C132.931 37.9785 134.462 37.1535 136.807 36.6742H136.812Z" fill="white"/>
<path d="M164.336 24.1472C167.868 21.959 171.334 20.3484 172.251 20.9062C173.168 21.4758 171.143 24.1236 167.56 26.4729C164.08 28.7475 160.422 29.7453 159.548 29.0264C158.696 28.3114 160.916 26.2843 164.336 24.1472Z" fill="white" fill-opacity="0.36"/>
<path d="M164.9 24.5549C167.18 23.1249 169.437 22.1585 170.033 22.5396C170.619 22.9246 169.288 24.5627 166.985 26.0595C164.728 27.5209 162.383 28.2359 161.811 27.792C161.248 27.3441 162.662 25.9613 164.896 24.5588L164.9 24.5549Z" fill="white"/>
<path d="M158.741 31.3069C162.771 29.268 166.712 27.8537 167.726 28.5884C168.745 29.3387 166.4 32.1044 162.301 34.3358C158.318 36.5004 154.153 37.1643 153.199 36.2372C152.259 35.314 154.818 33.2947 158.736 31.3069H158.741Z" fill="white" fill-opacity="0.36"/>
<path d="M159.36 31.837C161.961 30.5013 164.53 29.6803 165.191 30.1753C165.837 30.6781 164.297 32.3831 161.668 33.7934C159.086 35.1802 156.415 35.6948 155.791 35.1173C155.177 34.5398 156.81 33.1491 159.36 31.837Z" fill="white"/>
<path d="M152.213 38.7291C156.815 36.9141 161.296 35.7984 162.427 36.753C163.553 37.7312 160.826 40.5951 156.131 42.634C151.552 44.6218 146.834 44.8732 145.791 43.6868C144.763 42.5044 147.718 40.5047 152.213 38.7291Z" fill="white" fill-opacity="0.36"/>
<path d="M152.892 39.4123C155.87 38.218 158.797 37.6012 159.519 38.2455C160.23 38.9055 158.439 40.6497 155.433 41.9383C152.464 43.2033 149.44 43.4625 148.751 42.72C148.081 41.9776 149.97 40.5908 152.892 39.4123Z" fill="white"/>
<path d="M189.063 6.54575C192.883 2.46403 196.764 -0.835909 197.932 -0.486272C199.104 -0.116993 197.052 3.87829 193.162 8.125C189.393 12.2303 185.284 14.8624 184.172 14.3517C183.093 13.8331 185.373 10.4939 189.063 6.54575Z" fill="white" fill-opacity="0.36"/>
<path d="M189.769 6.81705C192.24 4.17317 194.776 2.11071 195.52 2.35427C196.269 2.6057 194.92 5.12387 192.421 7.83846C189.978 10.4902 187.349 12.2737 186.623 11.9634C185.916 11.6413 187.363 9.40594 189.769 6.81705Z" fill="white"/>
<path d="M183.544 17.4121C187.946 13.3619 192.348 10.1366 193.651 10.6708C194.959 11.2248 192.586 15.4793 188.095 19.73C183.768 23.8274 179.059 26.1766 177.835 25.4342C176.644 24.6877 179.315 21.3053 183.544 17.4121Z" fill="white" fill-opacity="0.36"/>
<path d="M184.331 17.8124C187.164 15.1842 190.054 13.2003 190.887 13.5657C191.72 13.9389 190.147 16.5985 187.276 19.3131C184.466 21.957 181.46 23.5794 180.655 23.1276C179.873 22.6719 181.567 20.3777 184.331 17.8163V17.8124Z" fill="white"/>
<path d="M177.03 28.7639C182.111 24.8982 187.132 21.8811 188.574 22.655C190.036 23.4564 187.262 27.9349 182.065 32.0559C177.072 36.0119 171.674 37.8937 170.329 36.8605C169.017 35.8273 172.158 32.4763 177.025 28.7678L177.03 28.7639Z" fill="white" fill-opacity="0.36"/>
<path d="M177.9 29.3347C181.176 26.8205 184.466 25.0055 185.396 25.528C186.318 26.0701 184.484 28.8397 181.162 31.4601C177.923 34.0136 174.471 35.3611 173.591 34.7168C172.726 34.0804 174.717 31.7822 177.905 29.3308L177.9 29.3347Z" fill="white"/>
<path d="M169.296 40.4815C175.164 36.9616 180.92 34.3373 182.526 35.4295C184.15 36.553 180.878 41.1926 174.852 45.0189C169.055 48.6921 162.875 49.9256 161.4 48.5232C159.967 47.1285 163.661 43.8718 169.292 40.4854L169.296 40.4815Z" fill="white" fill-opacity="0.36"/>
<path d="M170.25 41.2624C174.042 38.9642 177.811 37.4321 178.84 38.1706C179.863 38.9288 177.7 41.7731 173.847 44.1969C170.092 46.558 166.141 47.5087 165.168 46.6365C164.224 45.7644 166.569 43.5055 170.25 41.2624Z" fill="white"/>
<path d="M211.064 -8.51319C215.847 -14.7909 220.966 -19.7684 222.664 -19.3009C224.395 -18.798 221.924 -13.0035 217.006 -6.65108C212.19 -0.428331 206.848 3.87338 205.261 3.29589C203.716 2.72233 206.41 -2.39651 211.064 -8.51319Z" fill="white" fill-opacity="0.36"/>
<path d="M204.772 7.76498C210.323 1.35366 216.135 -3.69054 218.033 -2.97555C219.969 -2.21342 217.098 4.0879 211.384 10.6406C205.833 16.9891 199.677 20.9922 197.918 20.1044C196.215 19.2205 199.425 13.9524 204.772 7.76498Z" fill="white" fill-opacity="0.36"/>
<path d="M205.902 8.2324C209.495 4.08782 213.292 0.937164 214.506 1.40858C215.73 1.90358 213.841 5.88315 210.183 10.0906C206.596 14.2076 202.645 16.9262 201.496 16.3762C200.365 15.8301 202.403 12.2827 205.907 8.2324H205.902Z" fill="white"/>
<path d="M197.206 25.009C203.688 18.7313 210.324 13.8639 212.441 14.9324C214.614 16.056 211.245 22.8012 204.549 29.2872C198.104 35.5138 190.976 38.8688 189.035 37.5567C187.165 36.2603 191.017 31.0078 197.206 25.0051V25.009Z" fill="white" fill-opacity="0.36"/>
<path d="M198.464 25.7161C202.652 21.658 207.002 18.6723 208.352 19.3834C209.72 20.1219 207.491 24.3372 203.215 28.4857C199.041 32.5203 194.49 34.8695 193.21 34.0563C191.968 33.2471 194.401 29.6643 198.464 25.7161Z" fill="white"/>
<path d="M188.027 42.8874C195.621 37.0968 203.247 32.7479 205.621 34.2879C208.054 35.9104 204.043 42.9856 196.151 49.0355C188.594 54.8183 180.33 57.1557 178.204 55.2936C176.161 53.4668 180.805 48.403 188.027 42.8874Z" fill="white" fill-opacity="0.36"/>
<path d="M189.414 43.9079C194.318 40.1562 199.33 37.5712 200.833 38.6005C202.359 39.6651 199.697 44.0179 194.667 47.8836C189.786 51.6314 184.505 53.3678 183.099 52.2049C181.736 51.0578 184.668 47.5457 189.414 43.9079Z" fill="white"/>
<path d="M238.918 22.994C237.08 25.7714 234.595 28.7571 231.589 31.6524C222.869 40.0201 213.153 44.3414 210.226 42.1926C207.458 40.1144 212.213 32.3713 220.394 23.8857C227.262 16.783 234.628 11.5031 238.918 10.9138V22.9979V22.994Z" fill="white" fill-opacity="0.36"/>
<path d="M222.278 25.0954C227.792 19.454 233.818 15.7298 235.898 17.1244C238.03 18.5858 235.224 24.5375 229.523 30.1081C223.916 35.5805 217.681 38.5976 215.75 37.2187C213.898 35.8673 216.895 30.6189 222.278 25.0954Z" fill="white"/>
<path d="M209.398 50.22C219.496 42.084 230.156 36.7649 233.832 39.7937C237.708 43.0544 232.576 53.1978 221.864 61.1216C211.539 68.7429 200.097 71.316 196.891 68.295C193.866 65.3958 199.78 57.9827 209.403 50.22H209.398Z" fill="white" fill-opacity="0.36"/>
</g>
<g filter="url(#filter0_d_9518_39137)">
<path fill-rule="evenodd" clip-rule="evenodd" d="M190.883 4.22191L192.254 6.36244L199.121 3.82904L205.868 14.3664C206.969 16.197 207.531 20.6455 201.017 23.8522C201.106 27.5287 199.771 31.1857 197.203 33.9826L202.862 42.8212L202.864 42.8197C203 43.0319 203.209 43.2539 203.463 43.4647C203.787 43.7335 204.185 43.984 204.599 44.1735C205.394 44.4776 206.312 44.4617 207.303 44.4208C207.764 44.3615 208.19 44.3467 208.573 44.3779L208.576 44.3779L208.578 44.3779C209.402 44.4458 210.025 44.728 210.354 45.2407C211.418 46.9034 208.979 50.3658 204.905 52.974C200.831 55.5822 196.666 56.3485 195.601 54.6859C195.313 54.236 195.282 53.6547 195.47 52.9939C195.549 52.6415 195.804 52 196.593 50.6761C197.576 49.0285 197.395 47.241 197.128 46.4922L197.142 46.4836L191.574 37.7879C186.805 39.5917 181.469 38.7444 177.563 35.6707C174.878 36.5382 169.782 37.0559 166.561 33.459C164.473 30.6177 162.622 27.8194 161.26 25.7606C160.478 24.5777 159.857 23.6389 159.445 23.0764L160.457 22.0043L166.338 19.5437C165.083 16.7789 169.108 11.3714 175.606 7.21153C182.34 2.89997 189.18 1.56139 190.883 4.22191ZM198.786 16.5657L193.888 8.91443L198.568 6.94254C199.582 8.41576 201.993 12.0932 203.525 15.0172C204.3 16.7669 202.41 19.3322 200.592 20.732C200.228 19.2908 199.631 17.8843 198.786 16.5657ZM174.4 32.1792C174.633 32.543 174.879 32.8925 175.139 33.2276C170.336 33.6524 167.423 29.1438 165.057 25.4819C164.639 24.8356 164.238 24.2156 163.848 23.6538L167.939 22.0881L174.4 32.1792ZM184.405 15.704L180.679 13.2297L180.825 17.6997L177.321 20.4785L181.617 21.7209L183.177 25.9125L185.686 22.2102L190.155 22.0221L187.409 18.4916L188.611 14.1837L184.405 15.704Z" fill="url(#paint1_linear_9518_39137)"/>
</g>
<circle cx="158" cy="8" r="2" fill="white"/>
<circle cx="157.5" cy="32.5" r="1.5" fill="white"/>
<circle cx="175" cy="3" r="1" fill="white"/>
<circle cx="210" cy="28" r="1" fill="white"/>
<circle cx="153" cy="22" r="1" fill="white"/>
</g>
<defs>
<filter id="filter0_d_9518_39137" x="157.445" y="2.854" width="55.1577" height="56.7104" filterUnits="userSpaceOnUse" color-interpolation-filters="sRGB">
<feFlood flood-opacity="0" result="BackgroundImageFix"/>
<feColorMatrix in="SourceAlpha" type="matrix" values="0 0 0 0 0 0 0 0 0 0 0 0 0 0 0 0 0 0 127 0" result="hardAlpha"/>
<feOffset dy="2"/>
<feGaussianBlur stdDeviation="1"/>
<feComposite in2="hardAlpha" operator="out"/>
<feColorMatrix type="matrix" values="0 0 0 0 0.00402094 0 0 0 0 0.257878 0 0 0 0 0.114026 0 0 0 0.04 0"/>
<feBlend mode="normal" in2="BackgroundImageFix" result="effect1_dropShadow_9518_39137"/>
<feBlend mode="normal" in="SourceGraphic" in2="effect1_dropShadow_9518_39137" result="shape"/>
</filter>
<linearGradient id="paint0_linear_9518_39137" x1="0" y1="0" x2="218" y2="40" gradientUnits="userSpaceOnUse">
<stop stop-color="#4BB554"/>
<stop offset="1" stop-color="#4A7BEE"/>
</linearGradient>
<linearGradient id="paint1_linear_9518_39137" x1="178.395" y1="5.11681" x2="194.845" y2="56.8823" gradientUnits="userSpaceOnUse">
<stop stop-color="white"/>
<stop offset="1" stop-color="#B6FFB1"/>
</linearGradient>
<clipPath id="clip0_9518_39137">
<rect width="218" height="40" fill="white"/>
</clipPath>
</defs>
</svg>
