<svg width="16px" height="16px" viewBox="0 0 16 16" xmlns="http://www.w3.org/2000/svg" fill="currentColor" class="text-secondary-accent"><path d="M.505493 2.81299C.505493 2.2607.953208 1.81299 1.50549 1.81299H14.0764C14.6287 1.81299 15.0764 2.2607 15.0764 2.81299 15.0764 3.36527 14.6287 3.81299 14.0764 3.81299H1.50549C.953209 3.81299.505493 3.36527.505493 2.81299ZM12.438 11.3674C12.8285 10.9769 13.4617 10.9769 13.8522 11.3674L15.6357 13.1509C16.0262 13.5414 16.0262 14.1746 15.6357 14.5651 15.2451 14.9556 14.612 14.9556 14.2214 14.5651L12.438 12.7816C12.0475 12.3911 12.0475 11.7579 12.438 11.3674ZM.505493 8.10646C.505493 7.55417.953208 7.10646 1.50549 7.10646H4.86826C5.42054 7.10646 5.86826 7.55417 5.86826 8.10646 5.86826 8.65874 5.42054 9.10646 4.86826 9.10646H1.50549C.953208 9.10646.505493 8.65874.505493 8.10646ZM.505493 13.3994C.505493 12.8471.953208 12.3994 1.50549 12.3994H3.00177C3.55405 12.3994 4.00177 12.8471 4.00177 13.3994 4.00177 13.9517 3.55405 14.3994 3.00177 14.3994H1.50549C.953208 14.3994.505493 13.9517.505493 13.3994Z"></path><path d="M10.9064 13.8581C13.1278 13.8581 14.9286 12.0573 14.9286 9.83597C14.9286 7.6146 13.1278 5.81382 10.9064 5.81382C8.68505 5.81382 6.88428 7.6146 6.88428 9.83597C6.88428 12.0573 8.68505 13.8581 10.9064 13.8581ZM10.9064 11.9165C9.75734 11.9165 8.82583 10.985 8.82583 9.83597C8.82583 8.68689 9.75734 7.75538 10.9064 7.75538C12.0555 7.75538 12.987 8.68689 12.987 9.83597C12.987 10.985 12.0555 11.9165 10.9064 11.9165Z"></path></svg>