
<svg width="16px" height="16px" viewBox="0 0 16 16" xmlns="http://www.w3.org/2000/svg" fill="currentColor">
  <path
    d="M8.50537 2.81299C8.50537 2.2607 8.95309 1.81299 9.50537 1.81299H14.0763C14.6286 1.81299 15.0763 2.2607 15.0763 2.81299 15.0763 3.36527 14.6286 3.81299 14.0763 3.81299H9.50537C8.95309 3.81299 8.50537 3.36527 8.50537 2.81299ZM8.50537 8.10646C8.50537 7.55417 8.95309 7.10646 9.50537 7.10646H14.0716C14.6239 7.10646 15.0716 7.55417 15.0716 8.10646 15.0716 8.65874 14.6239 9.10646 14.0716 9.10646H9.50537C8.95309 9.10646 8.50537 8.65874 8.50537 8.10646ZM8.50537 13.3994C8.50537 12.8471 8.95309 12.3994 9.50537 12.3994H14.0972C14.6495 12.3994 15.0972 12.8471 15.0972 13.3994 15.0972 13.9517 14.6495 14.3994 14.0972 14.3994H9.50537C8.95309 14.3994 8.50537 13.9517 8.50537 13.3994Z">
  </path>
  <rect x="0.938477" y="0.999695" width="5.80234" height="5.80234" rx="1.6"></rect>
  <path
    d="M5.14062 13.9995V14.9995H2.53809V13.9995H5.14062ZM5.74121 13.3989V10.7964C5.741 10.4652 5.47187 10.1968 5.14062 10.1968H2.53809C2.20702 10.197 1.93869 10.4653 1.93848 10.7964V13.3989C1.93848 13.7302 2.20689 13.9993 2.53809 13.9995V14.9995L2.375 14.9907C1.62201 14.9143 1.02287 14.3159 0.946289 13.563L0.938477 13.3989V10.7964C0.938674 9.96808 1.56824 9.28644 2.375 9.20459L2.53809 9.19678H5.14062L5.30469 9.20459C6.11126 9.28662 6.74101 9.96822 6.74121 10.7964V13.3989L6.73242 13.563C6.65583 14.3158 6.05747 14.9141 5.30469 14.9907L5.14062 14.9995V13.9995C5.472 13.9995 5.74121 13.7303 5.74121 13.3989Z">
  </path>
</svg>